<?xml version="1.0" encoding="utf-8"?>
<!-- Generator: Adobe Illustrator 15.0.0, SVG Export Plug-In . SVG Version: 6.00 Build 0)  -->
<!DOCTYPE svg PUBLIC "-//W3C//DTD SVG 1.1//EN" "http://www.w3.org/Graphics/SVG/1.1/DTD/svg11.dtd">
<svg version="1.1" id="Layer_1" xmlns="http://www.w3.org/2000/svg" xmlns:xlink="http://www.w3.org/1999/xlink" x="0px" y="0px"
	 width="40px" height="40px" viewBox="0 0 40 40" enable-background="new 0 0 40 40" xml:space="preserve">
<g>
	<polygon fill="#231F20" points="27.224,16.169 27.224,13.363 27.224,12.944 26.805,12.946 23.999,12.955 24.009,16.18 	"/>
	<path fill="#231F20" d="M19.913,23.614c1.847,0,3.35-1.501,3.35-3.348c0-0.729-0.237-1.403-0.635-1.953
		c-0.609-0.843-1.598-1.396-2.715-1.396s-2.105,0.553-2.715,1.396c-0.397,0.55-0.634,1.224-0.634,1.953
		C16.564,22.113,18.067,23.614,19.913,23.614z"/>
	<path fill="#231F20" d="M20,2.5c-9.665,0-17.5,7.833-17.5,17.498C2.5,29.664,10.335,37.5,20,37.5c9.664,0,17.5-7.836,17.5-17.502
		C37.5,10.333,29.664,2.5,20,2.5z M29.427,18.313v7.788c0,2.029-1.649,3.678-3.678,3.678H14.077c-2.028,0-3.677-1.648-3.677-3.678
		v-7.788V14.43c0-2.027,1.648-3.677,3.677-3.677h11.672c2.028,0,3.678,1.649,3.678,3.677V18.313z"/>
	<path fill="#231F20" d="M25.115,20.267c0,2.867-2.332,5.202-5.202,5.202c-2.869,0-5.201-2.335-5.201-5.202
		c0-0.691,0.137-1.35,0.383-1.953h-2.841v7.788c0,1.007,0.818,1.825,1.823,1.825h11.672c1.006,0,1.823-0.818,1.823-1.825v-7.788
		h-2.841C24.978,18.917,25.115,19.575,25.115,20.267z"/>
</g>
</svg>
