<?xml version="1.0" standalone="no"?><!DOCTYPE svg PUBLIC "-//W3C//DTD SVG 1.1//EN" "http://www.w3.org/Graphics/SVG/1.1/DTD/svg11.dtd"><svg width="100%" height="100%" viewBox="0 0 40 40" version="1.1" xmlns="http://www.w3.org/2000/svg" xmlns:xlink="http://www.w3.org/1999/xlink" xml:space="preserve" style="fill-rule:evenodd;clip-rule:evenodd;stroke-linejoin:round;stroke-miterlimit:1.41421;"><g><path d="M20,2.5c-9.665,0 -17.5,7.836 -17.5,17.5c0,9.666 7.835,17.5 17.5,17.5c9.664,0 17.5,-7.834 17.5,-17.5c0,-9.664 -7.836,-17.5 -17.5,-17.5ZM29.748,28.501c0,0.777 -0.646,1.408 -1.444,1.408l-16.641,0c-0.799,0 -1.444,-0.631 -1.444,-1.408l0,-16.835c0,-0.779 0.646,-1.41 1.444,-1.41l16.641,0c0.799,0 1.444,0.631 1.444,1.41l0,16.835Z" style="fill:#000;fill-rule:nonzero;"/><path d="M23.38,17.626c-1.566,0 -2.268,0.859 -2.659,1.466l0,0.027l-0.021,0c0,0 0.015,-0.02 0.021,-0.027l0,-1.258l-2.95,0c0.038,0.832 0,8.873 0,8.873l2.95,0l0,-4.955c0,-0.268 0.019,-0.529 0.097,-0.719c0.213,-0.529 0.699,-1.08 1.513,-1.08c1.069,0 1.495,0.813 1.495,2.006l0,4.748l2.948,0l0,-5.087c-0.001,-2.727 -1.456,-3.994 -3.394,-3.994Z" style="fill:#000;fill-rule:nonzero;"/><path d="M14.683,13.556c-1.008,0 -1.667,0.663 -1.667,1.533c0,0.852 0.64,1.535 1.629,1.535l0.02,0c1.027,0 1.669,-0.683 1.669,-1.535c-0.021,-0.87 -0.642,-1.533 -1.651,-1.533Z" style="fill:#000;fill-rule:nonzero;"/><rect x="13.189" y="17.834" width="2.951" height="8.873" style="fill:#000;"/></g></svg>