<?xml version="1.0" encoding="utf-8"?>
<!-- Generator: Adobe Illustrator 15.0.0, SVG Export Plug-In . SVG Version: 6.00 Build 0)  -->
<!DOCTYPE svg PUBLIC "-//W3C//DTD SVG 1.1//EN" "http://www.w3.org/Graphics/SVG/1.1/DTD/svg11.dtd">
<svg version="1.1" id="Layer_1" xmlns="http://www.w3.org/2000/svg" xmlns:xlink="http://www.w3.org/1999/xlink" x="0px" y="0px"
	 width="40px" height="40px" viewBox="0 0 40 40" enable-background="new 0 0 40 40" xml:space="preserve">
<g>
	<path fill="#231F20" d="M20,2.5C10.335,2.5,2.5,10.336,2.5,20c0,9.666,7.835,17.5,17.5,17.5S37.5,29.666,37.5,20
		C37.5,10.336,29.666,2.5,20,2.5z M26.102,29.683c-0.94,0.439-1.794,0.753-2.558,0.933c-0.764,0.179-1.588,0.268-2.476,0.268
		c-1.008,0-1.602-0.127-2.375-0.38c-0.774-0.256-1.435-0.621-1.98-1.089c-0.548-0.471-0.926-0.973-1.139-1.502
		c-0.21-0.53-0.316-1.3-0.316-2.308v-7.728h-2.994v-3.12c0.866-0.281,1.869-0.685,2.485-1.21c0.62-0.525,1.114-1.155,1.487-1.893
		c0.374-0.735,0.632-1.67,0.771-2.808h3.135v5.098h5.093v3.933h-5.093v5.65c0,1.277-0.017,2.016,0.119,2.376
		c0.134,0.36,0.472,0.736,0.84,0.952c0.487,0.291,1.043,0.438,1.671,0.438c1.116,0,2.226-0.363,3.329-1.088V29.683z"/>
</g>
</svg>
