<?xml version="1.0" standalone="no"?>
<!DOCTYPE svg PUBLIC "-//W3C//DTD SVG 1.1//EN" "http://www.w3.org/Graphics/SVG/1.1/DTD/svg11.dtd">
<svg width="100%" height="100%" viewBox="0 0 649 121" version="1.1" xmlns="http://www.w3.org/2000/svg" xmlns:xlink="http://www.w3.org/1999/xlink" xml:space="preserve" style="fill-rule:evenodd;clip-rule:evenodd;stroke-linejoin:round;stroke-miterlimit:1.41421;">
    <g transform="matrix(1,0,0,1,-18030.7,-20111.7)">
        <g transform="matrix(4.16667,0,0,4.16667,0,0)">
            <g>
                <path d="M4337.14,4843.77L4337.14,4850.21C4337.14,4851.23 4337.31,4851.94 4337.63,4852.32C4337.96,4852.7 4338.65,4852.89 4339.7,4852.89L4339.7,4855.06L4327.36,4855.06L4327.36,4852.89L4327.89,4852.89C4329.07,4852.89 4329.8,4852.69 4330.1,4852.29C4330.4,4851.89 4330.55,4851.19 4330.55,4850.21L4330.55,4844.48C4330.55,4843.44 4330.39,4842.73 4330.06,4842.34C4329.73,4841.95 4328.96,4841.76 4327.75,4841.76L4327.75,4839.59L4336.79,4838.1C4337.03,4838.7 4337.14,4839.58 4337.14,4840.76C4338.07,4839.71 4339.12,4838.92 4340.3,4838.4C4341.48,4837.88 4342.78,4837.62 4344.2,4837.62C4345.76,4837.62 4347.04,4837.92 4348.04,4838.52C4349.04,4839.11 4349.77,4840.01 4350.22,4841.21C4351.08,4840.01 4352.09,4839.11 4353.25,4838.52C4354.41,4837.92 4355.73,4837.62 4357.2,4837.62C4358.41,4837.62 4359.52,4837.85 4360.52,4838.29C4361.51,4838.73 4362.27,4839.29 4362.79,4839.95C4363.31,4840.61 4363.65,4841.27 4363.82,4841.93C4363.99,4842.6 4364.08,4843.55 4364.08,4844.81L4364.08,4850.21C4364.08,4851.28 4364.25,4851.99 4364.6,4852.35C4364.94,4852.71 4365.77,4852.89 4367.06,4852.89L4367.06,4855.06L4354.95,4855.06L4354.95,4852.89C4356,4852.89 4356.68,4852.69 4356.98,4852.3C4357.29,4851.9 4357.44,4851.21 4357.44,4850.21L4357.44,4844.34C4357.44,4843.19 4357.23,4842.33 4356.81,4841.76C4356.39,4841.19 4355.75,4840.9 4354.89,4840.9C4354.08,4840.9 4353.32,4841.14 4352.61,4841.62C4351.9,4842.09 4351.24,4842.81 4350.63,4843.77L4350.63,4850.21C4350.63,4851.22 4350.79,4851.92 4351.12,4852.31C4351.45,4852.7 4352.14,4852.89 4353.19,4852.89L4353.19,4855.06L4341.54,4855.06L4341.54,4852.89C4342.55,4852.88 4343.21,4852.68 4343.53,4852.3C4343.84,4851.92 4344,4851.22 4344,4850.21L4344,4844.38C4344,4843.25 4343.79,4842.4 4343.37,4841.83C4342.96,4841.26 4342.33,4840.98 4341.48,4840.98C4340.74,4840.98 4340.01,4841.21 4339.29,4841.68C4338.57,4842.14 4337.85,4842.84 4337.14,4843.77Z" style="fill:rgb(35,31,32);fill-rule:nonzero;"/>
                <path d="M4368.58,4846.63C4368.58,4843.82 4369.57,4841.62 4371.57,4840.02C4373.56,4838.42 4375.97,4837.62 4378.79,4837.62C4381.55,4837.62 4383.95,4838.4 4385.99,4839.95C4388.04,4841.5 4389.07,4843.73 4389.07,4846.65C4389.07,4849.42 4388.06,4851.63 4386.06,4853.27C4384.05,4854.91 4381.62,4855.74 4378.77,4855.74C4375.99,4855.74 4373.59,4854.96 4371.59,4853.39C4369.58,4851.83 4368.58,4849.58 4368.58,4846.63ZM4375.6,4846.43C4375.6,4849.05 4375.84,4850.88 4376.32,4851.92C4376.81,4852.96 4377.65,4853.49 4378.85,4853.49C4379.82,4853.49 4380.6,4853.05 4381.18,4852.18C4381.76,4851.3 4382.05,4849.44 4382.05,4846.59C4382.05,4844 4381.79,4842.24 4381.27,4841.32C4380.75,4840.4 4379.93,4839.94 4378.81,4839.94C4377.92,4839.94 4377.17,4840.33 4376.54,4841.11C4375.91,4841.9 4375.6,4843.67 4375.6,4846.43Z" style="fill:rgb(35,31,32);fill-rule:nonzero;"/>
                <path d="M4404.88,4852.73C4403.92,4853.63 4402.91,4854.31 4401.84,4854.77C4400.77,4855.22 4399.64,4855.45 4398.45,4855.45C4396.26,4855.45 4394.43,4854.74 4392.97,4853.33C4391.51,4851.92 4390.78,4849.77 4390.78,4846.88C4390.78,4843.67 4391.6,4841.33 4393.23,4839.85C4394.87,4838.36 4396.82,4837.62 4399.07,4837.62C4400.31,4837.62 4401.41,4837.81 4402.38,4838.18C4403.35,4838.55 4404.18,4839.1 4404.88,4839.84L4404.88,4833.23C4404.88,4832.2 4404.72,4831.49 4404.4,4831.11C4404.08,4830.72 4403.33,4830.52 4402.16,4830.52L4402.16,4828.33L4411.49,4826.82L4411.49,4849.58C4411.49,4850.74 4411.68,4851.48 4412.07,4851.82C4412.46,4852.15 4413.21,4852.32 4414.31,4852.32L4414.31,4854.63C4410.33,4854.78 4407.35,4855.06 4405.37,4855.45C4405.04,4854.74 4404.88,4853.83 4404.88,4852.73ZM4404.88,4849.9L4404.88,4842.29C4404.29,4841.72 4403.7,4841.29 4403.11,4841.01C4402.52,4840.73 4401.93,4840.59 4401.34,4840.59C4400.15,4840.59 4399.26,4841.06 4398.67,4842.01C4398.07,4842.95 4397.78,4844.36 4397.78,4846.26C4397.78,4848.31 4398.05,4849.84 4398.59,4850.87C4399.12,4851.89 4399.93,4852.4 4401.01,4852.4C4401.75,4852.4 4402.49,4852.17 4403.23,4851.72C4403.98,4851.26 4404.52,4850.65 4404.88,4849.9Z" style="fill:rgb(35,31,32);fill-rule:nonzero;"/>
                <path d="M4418.45,4830.52C4418.45,4829.51 4418.81,4828.64 4419.53,4827.91C4420.26,4827.18 4421.12,4826.82 4422.13,4826.82C4423.15,4826.82 4424.02,4827.18 4424.73,4827.9C4425.44,4828.63 4425.8,4829.5 4425.8,4830.52C4425.8,4831.55 4425.44,4832.42 4424.72,4833.14C4424.01,4833.87 4423.14,4834.23 4422.13,4834.23C4421.08,4834.23 4420.2,4833.86 4419.5,4833.11C4418.8,4832.37 4418.45,4831.51 4418.45,4830.52ZM4425.35,4837.62L4425.35,4850.17C4425.35,4851.21 4425.51,4851.92 4425.84,4852.31C4426.16,4852.7 4426.93,4852.89 4428.13,4852.89L4428.13,4855.06L4415.6,4855.06L4415.6,4852.89L4416.07,4852.89C4417.23,4852.89 4417.97,4852.69 4418.27,4852.28C4418.58,4851.87 4418.73,4851.17 4418.73,4850.17L4418.73,4844.07C4418.73,4843.06 4418.58,4842.36 4418.26,4841.95C4417.95,4841.55 4417.22,4841.35 4416.07,4841.35L4415.6,4841.35L4415.6,4839.18L4425.35,4837.62Z" style="fill:rgb(35,31,32);fill-rule:nonzero;"/>
                <path d="M4430.91,4855.74L4430.77,4850.17L4432.77,4850.17C4433.84,4852.48 4435.79,4853.63 4438.63,4853.63C4439.82,4853.63 4440.8,4853.43 4441.57,4853.02C4442.35,4852.61 4442.74,4852.14 4442.74,4851.62C4442.74,4851.17 4442.53,4850.82 4442.11,4850.58C4441.67,4850.35 4440.69,4850.07 4439.18,4849.76C4436.83,4849.28 4435.1,4848.83 4433.98,4848.4C4432.86,4847.97 4431.96,4847.31 4431.28,4846.41C4430.6,4845.52 4430.26,4844.5 4430.26,4843.36C4430.26,4841.65 4430.95,4840.27 4432.34,4839.21C4433.74,4838.15 4435.6,4837.62 4437.93,4837.62C4439.73,4837.62 4441.57,4837.98 4443.44,4838.69C4443.76,4838.38 4444.02,4838.02 4444.22,4837.62L4445.91,4837.62L4446.1,4842.7L4444.46,4842.7C4443.41,4840.61 4441.32,4839.57 4438.18,4839.57C4437.15,4839.57 4436.32,4839.74 4435.66,4840.07C4435.01,4840.4 4434.68,4840.83 4434.68,4841.35C4434.68,4841.9 4434.94,4842.3 4435.48,4842.56C4435.99,4842.82 4437.26,4843.14 4439.28,4843.54C4441.38,4843.96 4442.96,4844.39 4444.02,4844.83C4445.08,4845.27 4445.91,4845.9 4446.52,4846.74C4447.12,4847.58 4447.43,4848.55 4447.43,4849.66C4447.43,4851.45 4446.64,4852.91 4445.05,4854.04C4443.47,4855.17 4441.51,4855.74 4439.18,4855.74C4437.39,4855.74 4435.52,4855.36 4433.57,4854.59C4433.2,4854.86 4432.93,4855.25 4432.75,4855.74L4430.91,4855.74Z" style="fill:rgb(35,31,32);fill-rule:nonzero;"/>
                <path d="M4457.31,4840.51L4457.31,4849.25C4457.31,4850.71 4457.4,4851.68 4457.59,4852.15C4457.78,4852.62 4458.18,4852.85 4458.78,4852.85C4459.68,4852.85 4460.4,4852.29 4460.95,4851.17L4462.96,4851.85C4461.92,4854.44 4459.7,4855.74 4456.3,4855.74C4454.44,4855.74 4453.03,4855.28 4452.09,4854.38C4451.15,4853.47 4450.68,4852.11 4450.68,4850.29L4450.68,4840.51L4448.24,4840.51L4448.24,4838.3L4448.75,4838.32C4450.4,4838.32 4451.82,4837.8 4452.99,4836.74C4454.16,4835.69 4454.87,4834.36 4455.12,4832.73L4457.31,4832.73L4457.31,4838.3L4462.34,4838.3L4462.34,4840.51L4457.31,4840.51Z" style="fill:rgb(35,31,32);fill-rule:nonzero;"/>
                <path d="M4471.65,4846.49C4471.65,4848.71 4472.03,4850.38 4472.79,4851.5C4473.55,4852.62 4474.68,4853.18 4476.2,4853.18C4477.81,4853.18 4479.29,4852.36 4480.64,4850.72L4482.54,4851.87C4481.76,4852.99 4480.65,4853.91 4479.2,4854.64C4477.74,4855.37 4476.14,4855.74 4474.38,4855.74C4471.67,4855.74 4469.36,4854.91 4467.44,4853.27C4465.51,4851.63 4464.55,4849.41 4464.55,4846.61C4464.55,4843.81 4465.48,4841.62 4467.35,4840.02C4469.21,4838.42 4471.45,4837.62 4474.07,4837.62C4476.7,4837.62 4478.86,4838.36 4480.55,4839.82C4482.23,4841.29 4483.07,4843.51 4483.07,4846.49L4471.65,4846.49ZM4471.63,4844.42L4476.81,4844.42C4476.73,4841.4 4475.85,4839.9 4474.17,4839.9C4473.32,4839.9 4472.69,4840.27 4472.27,4841.02C4471.85,4841.77 4471.63,4842.9 4471.63,4844.42Z" style="fill:rgb(35,31,32);fill-rule:nonzero;"/>
            </g>
        </g>
    </g>
</svg>
